<?xml version="1.0" standalone="no"?><!DOCTYPE svg PUBLIC "-//W3C//DTD SVG 1.1//EN" "http://www.w3.org/Graphics/SVG/1.1/DTD/svg11.dtd"><svg t="1516171506094" class="icon" style="" viewBox="0 0 1029 1024" version="1.1" xmlns="http://www.w3.org/2000/svg" p-id="1939" xmlns:xlink="http://www.w3.org/1999/xlink" width="64.3125" height="64"><defs><style type="text/css"></style></defs><path d="M921.954883 55.946196 102.682637 55.946196c-50.408063 0-91.27175 40.863686-91.27175 91.27175l0 547.07382c0 50.408063 40.863686 91.27175 91.27175 91.27175l174.788885 0c18.367323 0 33.257451-14.890128 33.257451-33.257451l0 0c0-18.367323-14.890128-33.257451-33.257451-33.257451L102.682637 719.048613c-13.673417 0-24.756847-11.084453-24.756847-24.756847L77.92579 147.217946c0-13.672394 11.084453-24.756847 24.756847-24.756847l819.273269 0c13.672394 0 24.756847 11.084453 24.756847 24.756847l0 547.07382c0 13.673417-11.084453 24.756847-24.756847 24.756847L536.63712 719.048613c-11.68104 0-22.900569 4.555759-31.276331 12.698207L319.970452 911.988904c-13.276375 12.69309-13.749142 33.744545-1.056052 47.02092l0 0c12.69309 13.276375 33.744545 13.749142 47.02092 1.056052l166.101016-161.776524c8.377808-8.159844 19.61064-12.725836 31.304983-12.725836l358.614587 0c50.408063 0 91.27175-40.863686 91.27175-91.27175L1013.227656 147.217946C1013.227656 96.809883 972.363969 55.946196 921.954883 55.946196z" p-id="1940"></path><path d="M301.876352 418.550655m-51.418067 0a50.247 50.247 0 1 0 102.836133 0 50.247 50.247 0 1 0-102.836133 0Z" p-id="1941" fill="#707070"></path><path d="M511.978511 418.550655m-51.418067 0a50.247 50.247 0 1 0 102.836133 0 50.247 50.247 0 1 0-102.836133 0Z" p-id="1942" fill="#707070"></path><path d="M718.785623 418.550655m-51.418067 0a50.247 50.247 0 1 0 102.836133 0 50.247 50.247 0 1 0-102.836133 0Z" p-id="1943" fill="#707070"></path></svg>