<svg xmlns="http://www.w3.org/2000/svg" viewBox="0 0 209.25 59.94"><defs><style>.cls-1{fill:#1d50a2;fill-rule:evenodd;}</style></defs><title>资源 1</title><g id="图层_2" data-name="图层 2"><g id="Page_1" data-name="Page 1"><g id="图层_1-2" data-name="图层 1"><path class="cls-1" d="M20.07,20.94c.73-2.62,1.25-1.71,1.91.57a27.44,27.44,0,0,1-.5,7c-.23,1.11-1.23,4-2.74,3.65a3.8,3.8,0,0,1-2.47-2.87c-.07-.4.22-.75.29-1.07,1.17-2.41,2.87-4.66,3.51-7.23Zm12.46-2.6c.62-3.57,3.25-6.55,3.23-10.06,0-.57-.61-1.08-.83-1.68-.13-1,1.77-1.13,3.4.54a23.35,23.35,0,0,1-2.07,9.34c-.53,1.65-.33,2.26.59,1.84,4.6-1.51,10-2.58,12.78-1.4,2.52,1.07,1.59,2.32.34,4-2.25,3-5.48,4.94-8.86,6.75a10.88,10.88,0,0,1-8.55.16l-3.87,7.65,1.72-.28c.12-1.24.71-1.88,2.58-.89,8.48-1.63,13.92-3.67,15.88-1.19a4.14,4.14,0,0,1,1.44,5.21c-3,1.95-5.41,1.62-7.25-.6C40.89,35.5,37.83,36.65,35,37l-.11,1.65c1.25,3.17.61,4.87-.75,6.68l4.37.4,2.16.1c-.35-1.66.09-1.75,2.54-.17.25.16.6,0,.91.2,2.93,1.28,2.67,3.46.67,3.61l-12.44-.26a26.13,26.13,0,0,1-5.06,7.3c-2.1,2.28-4.49,3.53-7.28,3.39a12.36,12.36,0,0,1-5.74-2c-.47-.29-.81-.44-.87-.65s.16-.48,1.07-.42a35.44,35.44,0,0,0,5,1.13c4.88.58,7.52-3.1,9.08-9.31-5.31,0-6.83-2.67-5.75-7.09l-5.44,1.76C6,47.74-.76,49.14.07,45.45l9.51-3.28c5.05-2.09,11.82-3.31,15.34-5.85,1.23-.89,1.36-2.4,1.82-3.62,1-2.13,1.92-4.26,2.68-6.39-1.49.35-2.66,2.15-3.93,3.47-1.53.93-1.88.48-.5-2a23.57,23.57,0,0,1,4.82-4c0-4.76.73-8.33,2.36-5.35.13.22.18.16.36-.09ZM32,38.73l-1.47,6.35c-1.51.66-4.06.7-4.81-.46-.52-1.83-.53-3.39.58-4.48,1.3-1.26,4-1.17,5.7-1.41Zm7.14-19c2.15-1,8.15-2.17,8.71-.93s-4.33,4.55-6.72,6-6.46,1.26-7.27-.21,3.13-3.92,5.28-4.89Zm31.59,1.34A95.08,95.08,0,0,1,77,13.58c.53-.21.41.37.11,1.16a36.17,36.17,0,0,0-4.59,7c-.07.47.43.32,1.2-.11a29.85,29.85,0,0,1,3.56-1.54c.39-.14,1.68-.54,2-.28.85.65.59,2.72-.64,2.86a40,40,0,0,1-8.27,2.38c-2.72.41-2.11-1.23.35-4ZM84.19,13c.49-.42,1.13-1.26,1.61-1.69,1.76-1.6,3.56-3.25,5.27-5,1.05-1.1,2.07-2.24,3-3.46.48-.61.72-1.29,1.51-.5a.78.78,0,0,1,.23.48A3.27,3.27,0,0,1,95,4.66c-2.38,3.09-6.3,5.17-8.31,8.43-.66.83-.32,1,1,.43a19.88,19.88,0,0,1,4-1.15c2.11-.4,3.64-.34,4,.66s-.65,1.7-1.21,2.26a41.1,41.1,0,0,1-9.63,6.78A84.52,84.52,0,0,0,71.5,31.65c-.44.4-.15.55.64.54,1.88.34,2.65,1,2.66,1.74a8.35,8.35,0,0,1-1.48,2.53A9.41,9.41,0,0,1,71.7,38c-1.59,1.2-2.84,1.72-3.78,1.59-1.29-.17.2-.85.72-1.24a20.14,20.14,0,0,0,3.87-3.42c.57-.75.84-1.09-.27-1.3a5.89,5.89,0,0,0-2.66.2C69,34,67,35,66.89,33.76c-.06-.66,1-1.66,2.36-2.79,4.25-3.11,8.69-6.1,13.41-8.93,4-2.54,8-5,11.45-8.39a15,15,0,0,0-10,3.69c-2.91.68-3.51.08-.51-3.57l.61-.78ZM69.6,40.78c.71-.06,1.26,1.06,1.47,3.64,0,.42.07.89.09,1.41.21,3.7-1.13,5.5-2.82,4.7s-.65-2,.37-4.7a11.19,11.19,0,0,0,.49-1.7c.39-1.86-.57-3.25.4-3.35Zm7.28-10A27.36,27.36,0,0,1,81,27c.91-.77,1.66,0,.89,1l-1.38,1.76a8.86,8.86,0,0,0-.71.84q0,.15.42.3c.83.19,1,.72.71,1.46a3.66,3.66,0,0,1-1.07,1.5c-1.22,1.27-1.31,2.14-.78,2.92a3.27,3.27,0,0,1,.64,3.05c-.13.94-.21,1.71.18,2.08.94.88,1.81.51,2.14,2.41A3.69,3.69,0,0,1,80.49,48a4.8,4.8,0,0,1-5.23.38c-1.49-.89-1.73-2-1.27-3.63a3.7,3.7,0,0,1,1-1.7c1-.91,1.17-.34,1.17,1.71-.74,4.43,5,2.55,4.13-.24A3.54,3.54,0,0,0,79,43c-.8-.63-.72-.46-.8-1.52a14.36,14.36,0,0,1,.07-3.34l-.69-.57a2.62,2.62,0,0,1-.62-1c.06-1.44,1-2.56,1.83-3.76-2-.25-2.72-.77-1.88-2Zm6.16-2a59,59,0,0,1,6.17-5.56c3.22-1.72,5-1,2.93,5.67l-2.82,9.27c-.25.8-1.14,2.58-.34,3.15s3.12.07,4.84.58c3.27.7,5.31,2,5.18,4.5-.18,1.67-1.36,3-2.91,4.37.22.21.29.49.5.7a22.37,22.37,0,0,1,4.07,4.79c1.07,2.23-.52,1.87-1.79.93-1.72-1.29-3.57-3-5.73-4.82-.35,0-.64.25-1,.25-8.31.14-10.85-1.38-9.24-4.33a3.86,3.86,0,0,1,3.22-1.59c1.42,0,3.29,1,5.14,1.77.78.31,1.16,1,2.22.49,2.61-1.75,2.73-3.51,1.89-4.44s-3.19-.23-6.43-.5c-2.64-.28-3.74-2.48-2.61-7.47l3.92-9.22c.58-5.51-3.29,0-6,2.69-1.16.6-1.4,0-1.23-1.23Zm3.6,19c1,0,1.31.64,2.37,1.46s-.34.84-1.72.74-2.47-.19-2.47-.7a1.94,1.94,0,0,1,1.82-1.5ZM146.77,9.24a12.89,12.89,0,0,0,.48-6.18c3.34.07,4,2.39,2.22,6.73A15.76,15.76,0,0,0,148,19.6c2.71-1.21,7.61-.79,8-4.93a3.56,3.56,0,0,1,3.54,1.52c.47,1.12-.26,2.2-1.75,3-2.11,1.16-5.65,1.61-8.52,3-2.14,1.41-2.88,4.44-3.3,7.8,2.91,3.79,6.67,9.21,13.33,10.46,1.82.37,3.45,3.26,2.12,4-2.12,1-4.11,1.81-5.63,1.4-2.62-.72-2.56-4-5.74-8.41a21.06,21.06,0,0,0-5.16-5.95c-6.7,14.45-13.17,22.72-20.25,18.34-3-1.71-4.81-2.87-4.52-3.67,1.82.46,3,1.12,4.62,1.61,4,1.86,8.54-.25,13.9-9.43,2.56-4.32,4.79-8.69,5.5-13.28-7.3,2.52-13.31,6.59-21.89,8q-3.51-.14-2.92-2l9.43-3.94c5.33-2.23,16.06-5.1,16-6.68l2-11.27ZM175.72,27.5c.85-.92,2.44-3.25,3.44-3.24.69,0,.9.29-.3,2.77-1.17,3.17-1.13,4.94-.53,4.82s2.2-2.6,5.18-5.59c-1.08-3.18-.52-7.4-1.55-10.85a6.55,6.55,0,0,0-2.16-1.83c2.27-1.06,3.71-.7,4.24,1.74a23.49,23.49,0,0,1,.48,5.14c1.21.84,3.08-1.3,2.78-5.23-.5-3.45-.81-7-2-10.2-1.84-2.29-2.72-3.72-2.46-4.12,1.07-.25,2.12.65,4.12,3,1.16.49,1.77,2.15,1.76,4.93a15.19,15.19,0,0,0,1,6.36,7.68,7.68,0,0,1,.29,5.68c.14.92.92,2.88,1.46-.36.94-1.93,2.15-2.86,2-3.79-.07-.42-.5-.67-1-1-.85-.54-1.38-1,.15-1.12a14.33,14.33,0,0,1,2.27,0,8.51,8.51,0,0,1,2.33-3.93c-.77-.86-2.38.81-4.1,2.68-2.21.45-2.49-.69-2.09-2.4-1.45-1.22-1.45-2.06.67-2.32l3.23-.29C197,6.42,199.67,4.42,200,1.68c.1-.8,0-3,1.43-.61a2.94,2.94,0,0,1,.21,1.55L198,7.28c-.54,1.24.28,1.06,2-.07,3.75-1.86,7.1-2.74,7.69-.94.46,1.38-.54,2.66-1,3.91-1.06,2.76-2.89,5.06-4.47,7.43,5.05-.22,8.71.14,6.11,3.17-2.28,2.51-5.47,3.82-9,4.7a18,18,0,0,0-7.64,3.84c6.64-3.11,10.83-4,6.13,3.67a47.11,47.11,0,0,1-5.35,3.81,1.46,1.46,0,0,0,1.13,1.89l7.85-1.11c1.83-1.22,3.2-.69,4.33,1.06,1.08,2.45-.37,2.43-3.27,1.74-.54-.14-1.53.09-2.15-.05a11.83,11.83,0,0,0-5.34.77,17,17,0,0,1,1.58,7c.24,4-.45,6-1.68,7.28-.75.76-1.45.68-2.52.43-2.42-.56-6.2-2.56-10.18-4.57-1.34-.67-4-1.47-4.73-2.77a.81.81,0,0,1-.13-.7A142.14,142.14,0,0,0,193.86,53c.95-4.1.14-7.82-.78-11.51-5.05.24-10.75,2.92-16.5,5.56-.49.14-.94.65-1.35.73-3.14.57-3.31-.4-3.29-1.18l8.86-4,10-3.73a2,2,0,0,1-.59-1.4,10,10,0,0,1,4-5.53c.68-.38.41-.71-.15-1a27.38,27.38,0,0,0-6.19,2.84c-2.07,1.44-2.94,1.29-3-.29,1.62-2.81,4.19-4.69,8.79-7.42l4.76-2.16c5.63-1.3,8.31-3,9.32-5a15.12,15.12,0,0,0-5.27.12,19.18,19.18,0,0,0-5.15,3.75l-1.75-.15a26.07,26.07,0,0,0-8,4.58,38.17,38.17,0,0,0-8.85,9.93c-.55,1.3-3.25.11-3.4-1.65a27.85,27.85,0,0,1,.44-8Zm11-4.86c.64,0,1.54.16,1.54.78s-2.4,1.8-3.19,1.61c-.45-.11-.38-1.06,0-1.69a1.72,1.72,0,0,1,.84-.73c.36-.15.2,0,.85,0Zm1.35-3.19c.36.1.39.92.39,1.35s.17,1.1-.14,1.1a2.5,2.5,0,0,1-1.15-.41.74.74,0,0,1-.32-.56c-.05-.53.87-1.59,1.22-1.48Zm8.11-2.06c.51.15-.23,2.3-1,3.08s-1.07,1.08-1.38.93-.19-.85.19-1.63a8.73,8.73,0,0,1,1.48-2.13.8.8,0,0,1,.7-.25Zm2.71-4.19c.33,0,.15.69.37,1.92s-.55,2-1.05,1.78-.37-.88-.37-1.8.71-1.9,1.05-1.9Zm3-5c.4-.21,3.53-2,3.86-1.5a3.88,3.88,0,0,1-.28,2.84,23,23,0,0,1-1.69,2.65c-1.28,1.82-2.48,4.82-3,4.85s-.26-1.22-.12-2.68c0-.48-.25-1-.1-1.5s-1-.94-1.29-1.14.54-.86.48-1.08c-.2-.72-.42-1.41-.11-1.78s1.78-.42,2.23-.66Z"/></g></g></g></svg>