<?xml version="1.0" encoding="utf-8"?>
<!-- Generator: Adobe Illustrator 22.0.1, SVG Export Plug-In . SVG Version: 6.00 Build 0)  -->
<svg version="1.1" xmlns="http://www.w3.org/2000/svg" xmlns:xlink="http://www.w3.org/1999/xlink" x="0px" y="0px"
	 viewBox="0 0 76 76" style="enable-background:new 0 0 76 76;" xml:space="preserve">
<style type="text/css">
	.st0{display:none;}
	.st1{fill-rule:evenodd;clip-rule:evenodd;fill:#1D50A2;}
</style>
<g id="格点" class="st0">
</g>
<g id="图层_1">
</g>
<g id="桌面">
</g>
<g id="导线">
</g>
<g id="Page_1">
	<g id="图层_1_1_">
		<path class="st1" d="M38,1.9c20,0,36.2,16.3,36.2,36.2S57.9,74.4,38,74.4S1.7,58.1,1.7,38.1S18,1.9,38,1.9L38,1.9z M38,0.2
			c20.9,0,37.9,17,37.9,37.9S58.8,76,38,76S0.1,59,0.1,38.1S17.1,0.2,38,0.2L38,0.2z M8.1,44.9l5.5,1.1l0.1,0.7l-4.8,3L8.8,49
			l1.5-0.9l-0.4-2.2l-1.7-0.3L8.1,44.9L8.1,44.9z M10.5,46l0.3,1.8l1.3-0.8c0.4-0.2,0.7-0.4,1-0.6c-0.3,0-0.7,0-1-0.1L10.5,46
			L10.5,46z M9.6,51.2l4.6-2.5l0.3,0.6l-2.3,4.4l3.6-1.9l0.3,0.6l-4.6,2.5l-0.3-0.6l2.3-4.4l-3.6,1.9L9.6,51.2L9.6,51.2z M12.7,56.7
			l4.1-3.2l0.4,0.5l-1.7,1.3l1.7,2.1l1.7-1.3l0.4,0.5l-4.1,3.2l-0.4-0.5l1.9-1.5l-1.7-2.1l-1.9,1.5L12.7,56.7L12.7,56.7z M22.8,59.3
			l0.5,0.4l-1.9,2.4c-0.3,0.4-0.6,0.7-0.9,0.9c-0.3,0.2-0.6,0.2-1,0.2c-0.4,0-0.7-0.2-1.1-0.5c-0.4-0.3-0.7-0.6-0.8-0.9
			c-0.1-0.3-0.2-0.7-0.1-1c0.1-0.3,0.3-0.7,0.7-1.2l1.9-2.4l0.5,0.4L18.8,60c-0.3,0.4-0.5,0.7-0.5,0.9c-0.1,0.2-0.1,0.4,0,0.7
			c0.1,0.2,0.3,0.4,0.5,0.6c0.4,0.3,0.8,0.4,1.1,0.4c0.3,0,0.7-0.3,1.1-0.9L22.8,59.3L22.8,59.3z M22.1,65l2.5-4.6l0.6,0.3l-2.5,4.6
			L22.1,65L22.1,65z M31.2,63.3l0.7,0.2l-0.8,2.9c-0.1,0.5-0.3,0.9-0.5,1.2c-0.2,0.3-0.5,0.4-0.8,0.5c-0.4,0.1-0.8,0.1-1.3-0.1
			c-0.5-0.1-0.8-0.3-1.1-0.6c-0.3-0.2-0.4-0.5-0.4-0.9c0-0.3,0-0.8,0.2-1.3l0.8-2.9l0.7,0.2l-0.8,2.9c-0.1,0.4-0.2,0.8-0.2,1
			c0,0.2,0.1,0.4,0.3,0.6c0.2,0.2,0.4,0.3,0.7,0.4c0.5,0.1,0.9,0.1,1.1,0c0.3-0.2,0.5-0.6,0.7-1.2L31.2,63.3L31.2,63.3z M32.6,69
			l0.7-5.2l0.7,0.1l2.2,4.5l0.6-4.1l0.7,0.1l-0.7,5.2L36,69.5l-2.2-4.5l-0.6,4.1L32.6,69L32.6,69z M38.9,69.6v-5.2h0.7v5.2H38.9
			L38.9,69.6z M43.4,69.3l-2.8-4.9l0.7-0.1l1.9,3.6c0.2,0.3,0.3,0.6,0.4,0.8c0-0.3,0.1-0.6,0.1-0.9l0.8-4l0.7-0.1l-1.2,5.5
			L43.4,69.3L43.4,69.3z M47.6,68.3l-1.7-5l3.6-1.2l0.2,0.6l-2.9,1l0.5,1.5l2.7-0.9l0.2,0.6l-2.7,0.9l0.6,1.7l3-1l0.2,0.6L47.6,68.3
			L47.6,68.3z M53.2,66.2l-2.9-4.4l1.9-1.3c0.4-0.3,0.7-0.4,1-0.5c0.3-0.1,0.5,0,0.8,0.1c0.3,0.1,0.5,0.3,0.6,0.5
			c0.2,0.3,0.3,0.6,0.2,1c-0.1,0.3-0.3,0.7-0.7,1c0.2,0,0.4,0,0.5,0c0.3,0,0.6,0.1,0.9,0.3l1.6,0.7l-0.7,0.5l-1.2-0.5
			c-0.3-0.1-0.6-0.3-0.8-0.3c-0.2-0.1-0.4-0.1-0.5-0.1c-0.1,0-0.2,0-0.3,0.1c-0.1,0-0.2,0.1-0.3,0.2l-0.7,0.5l1.3,1.9L53.2,66.2
			L53.2,66.2z M52.1,63.4l1.2-0.8c0.3-0.2,0.5-0.3,0.6-0.5c0.1-0.2,0.2-0.3,0.2-0.5c0-0.2-0.1-0.3-0.1-0.5c-0.1-0.2-0.3-0.3-0.6-0.4
			c-0.2,0-0.5,0.1-0.8,0.3L51.1,62L52.1,63.4L52.1,63.4z M56.9,61.6l0.4-0.5c0.2,0.2,0.4,0.3,0.6,0.3c0.2,0,0.4,0,0.7-0.1
			c0.2-0.1,0.5-0.2,0.7-0.5c0.2-0.2,0.3-0.4,0.4-0.6c0.1-0.2,0.1-0.4,0.1-0.5c0-0.2-0.1-0.3-0.2-0.4c-0.1-0.1-0.3-0.2-0.4-0.2
			c-0.2,0-0.3,0-0.6,0.1c-0.1,0.1-0.4,0.2-0.8,0.5c-0.4,0.3-0.7,0.4-0.9,0.5c-0.3,0.1-0.5,0.1-0.7,0.1c-0.2-0.1-0.4-0.2-0.6-0.3
			c-0.2-0.2-0.3-0.4-0.4-0.7c-0.1-0.3,0-0.5,0.1-0.8c0.1-0.3,0.3-0.6,0.6-0.8c0.3-0.3,0.6-0.5,0.9-0.6c0.3-0.1,0.6-0.2,0.9-0.1
			c0.3,0.1,0.5,0.2,0.8,0.4l-0.4,0.5c-0.3-0.2-0.5-0.3-0.8-0.3c-0.3,0-0.5,0.2-0.8,0.5c-0.3,0.3-0.5,0.6-0.5,0.8
			c0,0.2,0,0.4,0.2,0.6c0.1,0.1,0.3,0.2,0.5,0.2c0.2,0,0.5-0.2,1-0.5c0.5-0.3,0.8-0.5,1.1-0.6c0.3-0.1,0.6-0.1,0.9-0.1
			c0.3,0.1,0.5,0.2,0.7,0.4c0.2,0.2,0.3,0.4,0.4,0.7c0.1,0.3,0,0.6-0.1,0.9c-0.1,0.3-0.3,0.6-0.6,0.9c-0.3,0.3-0.7,0.6-1,0.7
			c-0.3,0.1-0.6,0.2-1,0.1C57.5,62,57.2,61.8,56.9,61.6L56.9,61.6z M62.4,58.3l-4-3.4l0.4-0.5l4,3.4L62.4,58.3L62.4,58.3z
			 M64.9,54.8l-4-2.3L60,54l-0.5-0.3l2.1-3.6l0.5,0.3l-0.9,1.5l4,2.3L64.9,54.8L64.9,54.8z M67.5,49.8l-2-1l-3.6,0.5l0.4-0.8
			l1.9-0.2c0.3,0,0.7-0.1,1-0.1c-0.2-0.3-0.4-0.6-0.6-0.9l-0.9-1.6L64,45l1.8,3.2l2,1L67.5,49.8L67.5,49.8z M38,18.4
			c10.9,0,19.8,8.9,19.8,19.8S48.9,57.9,38,57.9S18.2,49,18.2,38.1S27.1,18.4,38,18.4v-0.8c11.3,0,20.6,9.2,20.6,20.6
			S49.3,58.7,38,58.7s-20.6-9.2-20.6-20.6S26.6,17.5,38,17.5V18.4z M24.9,40.5c2,0,3.8,0.7,4.6,1.7c0.9-1,2.6-1.6,4.5-1.6
			c1.8,0,3.4,0.6,4.3,1.4c0.9-0.7,2.3-1.1,3.9-1.1c1.8,0,3.3,0.5,4.2,1.3c0.9-0.8,2.5-1.3,4.2-1.3c1.9,0,3.5,0.6,4.4,1.5H20.1
			C20.8,41.3,22.7,40.5,24.9,40.5L24.9,40.5z M22.3,35.8h4.3v4.3h-0.4c-0.4-0.1-0.9-0.1-1.4-0.1c-0.5,0-0.9,0-1.4,0.1h-1.2V35.8
			L22.3,35.8z M20.6,32.7h4.3v2.5h-3v5.3h-1.2V32.7L20.6,32.7z M27.2,40.4v-5.1h1v5.1L27.2,40.4C27.2,40.4,27.2,40.4,27.2,40.4
			L27.2,40.4z M25.7,34.2h6.7v1.2h-3.7v-0.5h-1.8v0.5h-1.2V34.2L25.7,34.2z M28.7,41.1V36h4v4.3c-0.9,0.1-1.7,0.4-2.4,0.8L28.7,41.1
			C28.8,41.1,28.7,41.1,28.7,41.1L28.7,41.1z M35.5,28.8h0.7v11.5h-0.4c-0.1,0-0.2,0-0.3-0.1V28.8L35.5,28.8z M31.6,33.9v-4.2h3.1
			V40h-1.4v-4.4h-0.5v-1.8H31.6L31.6,33.9z M40,28.8h0.7v11.5H40V28.8L40,28.8z M36.7,28.3h2.7v12.7c-0.2,0.1-0.4,0.2-0.6,0.3h-0.7
			c-0.4-0.3-0.8-0.5-1.4-0.7V28.3L36.7,28.3z M54,37.1h-4.3v3.6c0.3,0,0.7-0.1,1-0.1c1.2,0,2.4,0.3,3.3,0.7V37.1L54,37.1z
			 M55.9,34.1h-4.3v2.5h3v5.1c0.1,0.1,0.2,0.2,0.3,0.2h0.9V34.1L55.9,34.1z M49,40.8v-4.5h-1v4.8C48.3,40.9,48.7,40.8,49,40.8
			L49,40.8z M50.8,34.9H44v1.2h3.7v-0.5h1.8v0.5h1.2V34.9L50.8,34.9z M47.4,41.3v-4.7h-3.7v4c1.1,0.2,2.1,0.6,2.7,1.1h0.3
			C46.9,41.6,47.1,41.5,47.4,41.3L47.4,41.3z M44.5,34.1v-4.2h-3.1v10.3h1.4v-4.4h0.5v-1.8H44.5L44.5,34.1z M34.3,45.4v3.1h-0.9v-2
			c-0.1,0.1-0.3,0.2-0.4,0.3c-0.1,0.1-0.3,0.1-0.5,0.2v-0.7c0.3-0.1,0.5-0.2,0.7-0.3c0.2-0.1,0.3-0.3,0.4-0.5H34.3L34.3,45.4z
			 M35.3,47.8l0.8-0.1c0,0.1,0.1,0.2,0.1,0.2c0.1,0,0.1,0.1,0.2,0.1c0.1,0,0.2-0.1,0.3-0.2c0.1-0.1,0.1-0.3,0.1-0.6
			c-0.1,0.1-0.2,0.2-0.3,0.2c-0.1,0-0.2,0.1-0.4,0.1c-0.3,0-0.5-0.1-0.7-0.3c-0.2-0.2-0.3-0.4-0.3-0.7c0-0.2,0-0.4,0.1-0.6
			c0.1-0.2,0.2-0.3,0.4-0.4c0.2-0.1,0.4-0.1,0.6-0.1c0.3,0,0.6,0.1,0.7,0.2c0.2,0.1,0.3,0.3,0.4,0.5c0.1,0.2,0.2,0.5,0.2,0.9
			c0,0.6-0.1,1-0.3,1.2c-0.2,0.3-0.6,0.4-1,0.4c-0.2,0-0.4,0-0.6-0.1c-0.1-0.1-0.3-0.1-0.4-0.2C35.4,48.1,35.3,48,35.3,47.8
			L35.3,47.8z M36.8,46.5c0-0.2,0-0.3-0.1-0.4c-0.1-0.1-0.2-0.1-0.3-0.1c-0.1,0-0.2,0-0.3,0.1C36,46.2,36,46.3,36,46.4
			c0,0.2,0,0.3,0.1,0.4c0.1,0.1,0.2,0.1,0.3,0.1c0.1,0,0.2,0,0.3-0.1C36.8,46.8,36.8,46.6,36.8,46.5L36.8,46.5z M40.6,48.5H38
			c0-0.3,0.1-0.5,0.3-0.7c0.1-0.2,0.4-0.5,0.8-0.8c0.2-0.2,0.4-0.3,0.5-0.4c0.1-0.1,0.1-0.2,0.1-0.3c0-0.1,0-0.2-0.1-0.2
			C39.5,46,39.4,46,39.3,46c-0.1,0-0.2,0-0.3,0.1c-0.1,0.1-0.1,0.2-0.1,0.4l-0.9-0.1c0-0.2,0.1-0.4,0.2-0.6c0.1-0.1,0.2-0.2,0.4-0.3
			c0.2-0.1,0.4-0.1,0.7-0.1c0.3,0,0.5,0,0.7,0.1c0.2,0.1,0.3,0.2,0.4,0.3c0.1,0.1,0.1,0.3,0.1,0.5c0,0.2-0.1,0.4-0.2,0.5
			c-0.1,0.2-0.3,0.4-0.6,0.6c-0.2,0.1-0.3,0.2-0.3,0.2c-0.1,0-0.1,0.1-0.2,0.2h1.3V48.5L40.6,48.5z M41.4,46.9
			c-0.1-0.1-0.2-0.2-0.3-0.2C41,46.5,41,46.4,41,46.2c0-0.3,0.1-0.5,0.4-0.6c0.2-0.1,0.4-0.2,0.7-0.2c0.4,0,0.7,0.1,0.9,0.2
			c0.2,0.2,0.3,0.4,0.3,0.6c0,0.1,0,0.3-0.1,0.4c-0.1,0.1-0.2,0.2-0.3,0.3c0.2,0.1,0.3,0.2,0.4,0.3c0.1,0.1,0.1,0.3,0.1,0.4
			c0,0.2,0,0.3-0.1,0.4c-0.1,0.1-0.2,0.2-0.3,0.3c-0.1,0.1-0.2,0.1-0.4,0.2c-0.2,0-0.3,0.1-0.5,0.1c-0.3,0-0.6,0-0.7-0.1
			c-0.2-0.1-0.3-0.2-0.4-0.3c-0.1-0.1-0.1-0.3-0.1-0.5c0-0.2,0-0.3,0.1-0.5C41.1,47,41.3,46.9,41.4,46.9L41.4,46.9z M41.8,46.3
			c0,0.1,0,0.2,0.1,0.3c0.1,0.1,0.2,0.1,0.3,0.1c0.1,0,0.2,0,0.2-0.1c0.1-0.1,0.1-0.1,0.1-0.2c0-0.1,0-0.2-0.1-0.3
			c-0.1-0.1-0.1-0.1-0.3-0.1c-0.1,0-0.2,0-0.3,0.1C41.8,46.1,41.8,46.2,41.8,46.3L41.8,46.3z M41.8,47.6c0,0.1,0,0.2,0.1,0.3
			C42,48,42.1,48,42.2,48c0.1,0,0.2,0,0.3-0.1c0.1-0.1,0.1-0.2,0.1-0.3c0-0.1,0-0.2-0.1-0.3c-0.1-0.1-0.2-0.1-0.3-0.1
			c-0.1,0-0.2,0-0.3,0.1C41.8,47.3,41.8,47.4,41.8,47.6L41.8,47.6z M11.1,22.8c0.1-0.5,0.6-1.8,0.9-1.8c0.3,0,0.3,1.4,0.3,2
			c0,0.6-0.6,1.4-0.9,1.3C11,24.4,11,23.3,11.1,22.8L11.1,22.8z M13.8,26.5l1,1.1c-0.1,0.4-0.4,0.9-0.7,0.9
			c-0.4-0.1-0.7-0.3-0.8-0.7C13.3,27.3,13.6,26.8,13.8,26.5L13.8,26.5z M10,23.9c-0.6-0.6-0.8-1.4-1.5-1.9C8.4,22,8.2,22,8.1,22
			c-0.2-0.1,0-0.5,0.5-0.6c0.6,0.4,1.1,0.9,1.5,1.5c0.2,0.3,0.4,0.3,0.4,0.1c0.3-1.1,0.8-2.2,1.3-2.6c0.5-0.3,0.6,0,0.8,0.4
			c0.3,0.8,0.3,1.6,0.2,2.5c-0.1,0.8-0.5,1.3-1,1.6l1,1.7l0.2-0.4c-0.2-0.2-0.3-0.4,0.2-0.6c0.7-1.8,1-3.1,1.7-3.1
			c0.5-0.2,0.9,0,1.2,0.4c0,0.8-0.4,1.2-1,1.3c-0.7,0.1-0.8,0.9-1.1,1.4l0.3,0.2c0.8,0.2,1,0.5,1.2,1l0.6-0.8l0.3-0.4
			c-0.4-0.1-0.3-0.2,0.3-0.5c0.1,0,0.1-0.1,0.1-0.1c0.6-0.4,1-0.1,0.8,0.3l-1.6,2.3c0.4,0.6,0.6,1.2,0.8,1.9
			c0.2,0.7,0.1,1.3-0.3,1.8c-0.2,0.3-0.6,0.6-1.1,0.8c-0.1,0.1-0.2,0.1-0.2,0.1c0,0-0.1-0.1,0.1-0.3c0.3-0.3,0.6-0.5,0.8-0.8
			c0.7-0.8,0.3-1.8-0.6-2.9c-0.7,1-1.3,1-2.1,0.2l-0.3,1.2c-0.6,2.7-1.1,4.1-1.7,3.5l0.6-2.2c0.2-1.2,0.8-2.6,0.8-3.6
			c0-0.3-0.3-0.6-0.5-0.8c-0.3-0.5-0.6-0.9-0.9-1.3c-0.1,0.3,0.1,0.8,0.2,1.2c0,0.4-0.1,0.4-0.4-0.2c-0.1-0.5-0.2-0.9-0.2-1.4
			C9.8,24.5,9.2,23.9,10,23.9C10,24,10,23.9,10,23.9L10,23.9z M8.9,26.6c-0.4-0.5-0.2-0.4,0.3-0.3c0.4,0.3,0.9,0.6,1.2,1
			c0.2,0.2,0.6,0.7,0.3,1c-0.2,0.2-0.6,0.2-0.8,0.1c-0.1,0-0.1-0.1-0.2-0.2C9.6,27.6,9.4,27,8.9,26.6L8.9,26.6z M30.1,16.3
			c0.2-0.1,0.4,0,0.7,0.1c0.3,0.1,0,0.2-0.3,0.4c-0.3,0.1-0.6,0.2-0.6,0.1C29.8,16.7,29.8,16.4,30.1,16.3L30.1,16.3z M27.1,12.4
			c0.2-0.6,0.5-1.3,0.8-2c0.5-0.8,1-0.8,1.3,0.9l0.4,2.4c0,0.2,0,0.7,0.3,0.7c0.2,0,0.7-0.3,1.2-0.4c0.8-0.2,1.4-0.1,1.7,0.4
			c0.1,0.4,0,0.8-0.2,1.3c0.1,0,0.1,0.1,0.2,0.1c0.6,0.2,1.2,0.4,1.5,0.6c0.5,0.4,0.1,0.5-0.3,0.4c-0.5-0.1-1.1-0.3-1.8-0.4
			c-0.1,0-0.1,0.1-0.2,0.2c-1.9,1-2.6,0.9-2.6,0.1c0.1-0.3,0.2-0.6,0.5-0.7c0.3-0.2,0.9-0.1,1.4-0.2c0.2,0,0.4,0.1,0.6-0.1
			c0.4-0.7,0.2-1.1-0.1-1.2c-0.3-0.1-0.7,0.3-1.5,0.6c-0.6,0.2-1.1-0.1-1.4-1.4l-0.2-2.5c-0.5-1.3-0.7,0.4-1,1.3
			C27.3,12.8,27.2,12.7,27.1,12.4L27.1,12.4z M26,13.6c0.1-0.4,0.3-0.9,0.5-1.3c0.1-0.3,0.4-0.2,0.3,0.1l-0.1,0.6
			c0,0-0.1,0.3-0.1,0.3c0,0,0.1,0,0.1,0c0.2-0.1,0.3,0.1,0.3,0.2c0,0.2,0,0.3-0.1,0.5c-0.1,0.4,0,0.6,0.2,0.7
			c0.2,0.1,0.4,0.3,0.5,0.6c0.1,0.2,0.1,0.4,0.3,0.4c0.3,0.1,0.5-0.1,0.8,0.3c0.2,0.3,0.3,0.6,0.1,1c-0.2,0.4-0.7,0.7-1.1,0.7
			c-0.4,0-0.6-0.2-0.7-0.7c0-0.2,0-0.3,0-0.5c0.1-0.3,0.2-0.2,0.5,0.3c0.3,1.1,1.4,0,0.9-0.5c-0.1-0.1-0.3-0.1-0.5-0.2
			c-0.3,0-0.2,0-0.4-0.2c-0.1-0.2-0.3-0.5-0.4-0.8L26.9,15c-0.1,0-0.2-0.1-0.3-0.2c-0.2-0.3-0.1-0.7,0-1.1C26.1,14,25.9,14,26,13.6
			L26,13.6z M25.5,16.7c0.2-0.1,0.4,0.1,0.7,0.6c0.1,0.1,0.1,0.2,0.2,0.3c0.5,0.8,0.4,1.4-0.1,1.4c-0.5,0-0.4-0.4-0.4-1.1
			c0-0.2,0-0.3-0.1-0.4C25.6,17,25.2,16.8,25.5,16.7L25.5,16.7z M25.6,8.8c0.1-0.1,0.1-0.4,0.2-0.6c0.2-0.6,0.4-1.1,0.6-1.7
			c0.1-0.4,0.2-0.7,0.3-1.1c0-0.2,0-0.4,0.3-0.3c0,0,0.1,0,0.1,0.1c0.1,0.1,0.1,0.3,0,0.5c-0.2,1-0.8,1.9-0.9,2.8
			c-0.1,0.3,0,0.3,0.3,0c0.2-0.3,0.5-0.5,0.8-0.7c0.4-0.3,0.8-0.5,1-0.3c0.2,0.2,0,0.5,0,0.6c-0.3,0.8-0.8,1.7-1.4,2.6
			c-0.8,1.2-1.4,2.4-1.9,3.7c-0.1,0.1,0,0.1,0.2,0c0.5-0.1,0.7-0.1,0.8,0.1c0,0.3,0,0.5,0,0.7c0,0.2-0.1,0.4-0.2,0.5
			c-0.2,0.5-0.4,0.7-0.7,0.8c-0.3,0.1-0.1-0.2,0-0.4c0.2-0.4,0.4-0.8,0.5-1.2c0-0.2,0.1-0.3-0.2-0.3c-0.2,0.1-0.4,0.2-0.6,0.3
			c-0.1,0.1-0.5,0.6-0.6,0.3c-0.1-0.1,0-0.5,0.2-0.9c0.6-1.2,1.3-2.4,2-3.5c0.6-1,1.2-2,1.6-3.2c-0.9,0.5-1.5,1.1-1.8,2
			c-0.6,0.5-0.8,0.4-0.5-0.7L25.6,8.8L25.6,8.8z M23.5,12.1c0.1-0.8,0.3-1.6,0.6-2.4c0.1-0.1,0.1,0,0.2,0.2C24,10.7,23.9,11.4,24,12
			c0,0.1,0.1,0,0.3-0.2c0.2-0.3,0.4-0.5,0.6-0.8c0.1-0.1,0.3-0.3,0.4-0.3c0.3,0.1,0.4,0.5,0.2,0.7c-0.5,0.6-1.1,1.1-1.6,1.5
			C23.3,13.4,23.2,13,23.5,12.1L23.5,12.1z M53,9.3c0.4-0.3,0.7-0.7,0.9-1.2c0.7,0.4,0.5,1-0.4,1.6c-0.7,0.5-1.2,1.1-1.5,1.8
			c0.7,0.1,1.6,0.8,2.2,0c0.3,0.1,0.5,0.4,0.5,0.7c0,0.3-0.3,0.4-0.7,0.4c-0.6,0-1.3-0.4-2.1-0.4c-0.6,0-1.1,0.6-1.6,1.2
			c0.1,1.1,0.2,2.7,1.4,3.7c0.3,0.3,0.3,1.1-0.1,1.1c-0.6-0.1-1.1-0.1-1.3-0.4c-0.4-0.5,0-1.1-0.1-2.4c0-0.6-0.1-1.2-0.3-1.8
			c-3.1,2.1-5.4,3-6.3,1.3c-0.4-0.7-0.6-1.2-0.5-1.3c0.3,0.3,0.5,0.6,0.7,0.9c0.6,0.9,1.8,1,4-0.2c1-0.6,2-1.2,2.7-2
			c-1.8-0.4-3.5-0.3-5.4-1c-0.5-0.3-0.6-0.6-0.4-0.8c0.8,0.1,1.6,0.2,2.4,0.3c1.4,0.2,3.9,0.9,4.1,0.6L53,9.3L53,9.3z M68.5,23.2
			c0.1,0,1.1,0.1,1.1,0.2c0,0.1-0.2,0.4-0.5,0.6c-0.3,0.2-0.6,0.3-0.8,0.3c-0.5,0.2-1.2,0.7-1.4,0.7c-0.1,0,0.1-0.3,0.4-0.6
			c0.1-0.1,0.1-0.3,0.2-0.3c0.1-0.1-0.1-0.4-0.1-0.4c0-0.1,0.2-0.1,0.3-0.2c0.1-0.2,0.1-0.4,0.2-0.4C68.1,23,68.4,23.2,68.5,23.2
			L68.5,23.2z M67.1,23.9c0.1,0-0.1,0.2-0.2,0.5c-0.1,0.3-0.4,0.4-0.5,0.2c-0.1-0.1,0-0.2,0.2-0.5C66.8,24,67.1,23.8,67.1,23.9
			L67.1,23.9z M65.9,24.4c0.1,0.1-0.4,0.5-0.7,0.5c-0.3,0.1-0.4,0.1-0.4,0c0-0.1,0.1-0.2,0.3-0.3c0.1-0.1,0.4-0.2,0.6-0.3
			C65.8,24.4,65.9,24.4,65.9,24.4L65.9,24.4z M63.8,23.7c0.1,0.1,0,0.3-0.1,0.4c-0.1,0.1-0.1,0.3-0.2,0.2c0,0-0.2-0.1-0.2-0.3
			c0-0.1,0-0.1,0-0.2C63.4,23.8,63.8,23.7,63.8,23.7L63.8,23.7z M63.1,24.2c0.1,0.1,0.3,0.3,0.2,0.4c-0.1,0.1-0.8,0.1-0.9-0.1
			c-0.1-0.1,0.1-0.3,0.2-0.4c0.1-0.1,0.3,0,0.3,0C63,24.1,62.9,24.2,63.1,24.2L63.1,24.2z M59.9,23.8c0.3-0.1,1-0.4,1.2-0.2
			c0.2,0.1,0.2,0.2-0.5,0.6c-0.7,0.5-1,0.9-0.8,1c0.1,0.1,0.9-0.3,2-0.5c0.2-0.9,0.9-1.7,1.2-2.6c0-0.2-0.1-0.5-0.2-0.7
			c0.7,0.1,0.9,0.4,0.7,1c-0.2,0.4-0.4,0.8-0.6,1.2c0.1,0.4,0.9,0.2,1.4-0.8c0.4-0.8,0.8-1.7,1-2.6c-0.1-0.8-0.1-1.2,0-1.3
			c0.3,0.1,0.4,0.4,0.5,1.2c0.2,0.3,0.1,0.7-0.3,1.3c-0.3,0.5-0.6,1-0.7,1.6c-0.1,0.5-0.3,1-0.8,1.3c-0.1,0.2-0.2,0.8,0.4,0.1
			c0.5-0.3,0.9-0.3,1-0.6c0-0.1,0-0.2-0.1-0.4c-0.1-0.2-0.2-0.4,0.2-0.2c0.1,0.1,0.3,0.2,0.5,0.3c0.3-0.3,0.7-0.5,1.1-0.5
			c0-0.3-0.6-0.2-1.3,0c-0.6-0.2-0.5-0.5-0.1-0.8c-0.1-0.5,0-0.7,0.5-0.4l0.8,0.4c0.7-0.1,1.6-0.2,2.1-0.8c0.1-0.2,0.4-0.7,0.4,0.1
			c0,0.1-0.1,0.2-0.2,0.4l-1.5,0.5c-0.3,0.2-0.1,0.3,0.5,0.3c1.1,0.1,2,0.4,1.8,0.9c-0.1,0.4-0.5,0.5-0.8,0.7
			c-0.6,0.5-1.4,0.7-2.1,1c1.2,0.7,1.9,1.3,0.9,1.6c-0.9,0.2-1.8,0.1-2.7-0.2c-0.8-0.3-1.6-0.3-2.2-0.2c1.9,0.3,3,0.7,0.8,1.7
			c-0.6,0.1-1.1,0.1-1.7,0.1c-0.2,0.2-0.2,0.4,0,0.6l1.9,0.9c0.6,0,0.8,0.3,0.8,0.9c-0.1,0.7-0.4,0.5-1-0.1
			c-0.1-0.1-0.4-0.2-0.5-0.3c-0.4-0.3-0.9-0.5-1.3-0.6c-0.1,0.7-0.3,1.3-0.7,1.8c-0.5,0.9-1,1.3-1.4,1.4c-0.3,0.1-0.4-0.1-0.6-0.3
			C59.1,32,58.6,31,58,30c-0.2-0.3-0.7-0.9-0.7-1.3c0-0.1,0-0.1,0.1-0.2c0.9,1.2,1.9,2.4,2.9,3.5c0.8-0.8,1.1-1.7,1.5-2.7
			c-1.2-0.7-2.8-0.9-4.5-1.1c-0.1,0-0.3,0-0.4,0c-0.8-0.3-0.7-0.6-0.6-0.7l2.5,0.4l2.8,0.6c0-0.2,0-0.3,0.1-0.4
			c0.5-0.4,1-0.6,1.7-0.7c0.2,0,0.2-0.1,0.1-0.2c-0.6-0.2-1.4-0.3-1.8-0.3c-0.7,0-0.8-0.1-0.6-0.5c0.8-0.4,1.6-0.4,3-0.4l1.4,0.2
			c1.4,0.5,2.3,0.5,2.8,0.2c-0.3-0.3-0.7-0.5-1.2-0.7c-0.6-0.1-1.2,0-1.7,0.1L65,25.5c-0.8-0.2-1.6-0.2-2.4-0.1
			c-1.1,0.1-2.3,0.4-3.4,0.9c-0.3,0.2-0.7-0.4-0.5-0.9C59,24.9,59.4,24.3,59.9,23.8L59.9,23.8z"/>
	</g>
</g>
</svg>
